<mxfile host="app.diagrams.net" modified="2024-02-02T16:26:46.745Z" agent="Mozilla/5.0 (Windows NT 10.0; Win64; x64) AppleWebKit/537.36 (KHTML, like Gecko) Chrome/121.0.0.0 Safari/537.36" etag="xoHhyIoBgzMgGOK9vrxV" version="23.1.1" type="device">
  <diagram name="Pagina-1" id="ilvnl8OLw7AXdtpFobNo">
    <mxGraphModel dx="473" dy="1535" grid="1" gridSize="10" guides="1" tooltips="1" connect="1" arrows="1" fold="1" page="1" pageScale="1" pageWidth="827" pageHeight="1169" math="0" shadow="0">
      <root>
        <mxCell id="0" />
        <mxCell id="1" parent="0" />
        <mxCell id="W8uggQn7B4ikshPQJvNj-3" style="edgeStyle=orthogonalEdgeStyle;rounded=0;orthogonalLoop=1;jettySize=auto;html=1;strokeColor=#FF6666;" edge="1" parent="1" source="W8uggQn7B4ikshPQJvNj-1" target="W8uggQn7B4ikshPQJvNj-2">
          <mxGeometry relative="1" as="geometry" />
        </mxCell>
        <mxCell id="W8uggQn7B4ikshPQJvNj-1" value="" style="ellipse;whiteSpace=wrap;html=1;aspect=fixed;fillColor=#FF6666;fontColor=#000000;strokeColor=#C73500;" vertex="1" parent="1">
          <mxGeometry x="334" y="150" width="80" height="80" as="geometry" />
        </mxCell>
        <mxCell id="W8uggQn7B4ikshPQJvNj-7" style="edgeStyle=orthogonalEdgeStyle;rounded=0;orthogonalLoop=1;jettySize=auto;html=1;strokeColor=#FF6666;" edge="1" parent="1" source="W8uggQn7B4ikshPQJvNj-2" target="W8uggQn7B4ikshPQJvNj-4">
          <mxGeometry relative="1" as="geometry" />
        </mxCell>
        <mxCell id="W8uggQn7B4ikshPQJvNj-2" value="&lt;font style=&quot;font-size: 20px;&quot;&gt;A&lt;/font&gt;" style="ellipse;whiteSpace=wrap;html=1;aspect=fixed;strokeColor=#FF6666;fillColor=#FFFFFF;strokeWidth=3;" vertex="1" parent="1">
          <mxGeometry x="334" y="280" width="80" height="80" as="geometry" />
        </mxCell>
        <mxCell id="W8uggQn7B4ikshPQJvNj-8" style="edgeStyle=orthogonalEdgeStyle;rounded=0;orthogonalLoop=1;jettySize=auto;html=1;strokeColor=#FF6666;" edge="1" parent="1" source="W8uggQn7B4ikshPQJvNj-4" target="W8uggQn7B4ikshPQJvNj-5">
          <mxGeometry relative="1" as="geometry" />
        </mxCell>
        <mxCell id="W8uggQn7B4ikshPQJvNj-10" style="edgeStyle=orthogonalEdgeStyle;rounded=0;orthogonalLoop=1;jettySize=auto;html=1;curved=1;strokeColor=#FF6666;" edge="1" parent="1" source="W8uggQn7B4ikshPQJvNj-4" target="W8uggQn7B4ikshPQJvNj-6">
          <mxGeometry relative="1" as="geometry">
            <Array as="points">
              <mxPoint x="510" y="440" />
              <mxPoint x="510" y="680" />
            </Array>
          </mxGeometry>
        </mxCell>
        <mxCell id="W8uggQn7B4ikshPQJvNj-4" value="&lt;font style=&quot;font-size: 20px;&quot;&gt;B&lt;/font&gt;" style="ellipse;whiteSpace=wrap;html=1;aspect=fixed;strokeColor=#FF6666;fillColor=#FFFFFF;strokeWidth=3;" vertex="1" parent="1">
          <mxGeometry x="334" y="400" width="80" height="80" as="geometry" />
        </mxCell>
        <mxCell id="W8uggQn7B4ikshPQJvNj-9" style="edgeStyle=orthogonalEdgeStyle;rounded=0;orthogonalLoop=1;jettySize=auto;html=1;strokeColor=#FF6666;" edge="1" parent="1" source="W8uggQn7B4ikshPQJvNj-5" target="W8uggQn7B4ikshPQJvNj-6">
          <mxGeometry relative="1" as="geometry" />
        </mxCell>
        <mxCell id="W8uggQn7B4ikshPQJvNj-5" value="&lt;font style=&quot;font-size: 20px;&quot;&gt;C&lt;/font&gt;" style="ellipse;whiteSpace=wrap;html=1;aspect=fixed;strokeColor=#FF6666;fillColor=#FFFFFF;strokeWidth=3;" vertex="1" parent="1">
          <mxGeometry x="334" y="520" width="80" height="80" as="geometry" />
        </mxCell>
        <mxCell id="W8uggQn7B4ikshPQJvNj-12" style="edgeStyle=orthogonalEdgeStyle;rounded=0;orthogonalLoop=1;jettySize=auto;html=1;strokeColor=#FF6666;" edge="1" parent="1" source="W8uggQn7B4ikshPQJvNj-6" target="W8uggQn7B4ikshPQJvNj-11">
          <mxGeometry relative="1" as="geometry" />
        </mxCell>
        <mxCell id="W8uggQn7B4ikshPQJvNj-6" value="&lt;font style=&quot;font-size: 20px;&quot;&gt;D&lt;/font&gt;" style="ellipse;whiteSpace=wrap;html=1;aspect=fixed;strokeColor=#FF6666;fillColor=#FFFFFF;strokeWidth=3;" vertex="1" parent="1">
          <mxGeometry x="334" y="640" width="80" height="80" as="geometry" />
        </mxCell>
        <mxCell id="W8uggQn7B4ikshPQJvNj-11" value="" style="ellipse;whiteSpace=wrap;html=1;aspect=fixed;fillColor=#FF6666;fontColor=#000000;strokeColor=#C73500;" vertex="1" parent="1">
          <mxGeometry x="334" y="760" width="80" height="80" as="geometry" />
        </mxCell>
        <mxCell id="W8uggQn7B4ikshPQJvNj-13" value="" style="ellipse;whiteSpace=wrap;html=1;aspect=fixed;fillColor=#FFFFFF;strokeColor=none;" vertex="1" parent="1">
          <mxGeometry x="349" y="775" width="50" height="50" as="geometry" />
        </mxCell>
        <mxCell id="W8uggQn7B4ikshPQJvNj-15" value="" style="endArrow=classic;html=1;rounded=0;curved=1;strokeColor=#FF6666;" edge="1" parent="1">
          <mxGeometry width="50" height="50" relative="1" as="geometry">
            <mxPoint x="374" y="740" as="sourcePoint" />
            <mxPoint x="374" y="250" as="targetPoint" />
            <Array as="points">
              <mxPoint x="280" y="690" />
              <mxPoint x="240" y="490" />
              <mxPoint x="260" y="390" />
              <mxPoint x="290" y="300" />
            </Array>
          </mxGeometry>
        </mxCell>
      </root>
    </mxGraphModel>
  </diagram>
</mxfile>
